<?xml version="1.0" encoding="UTF-8" standalone="no"?><svg width="1115.654" height="1115.654" xmlns="http://www.w3.org/2000/svg"><rect x="0" y="0" width="1115.654" height="1115.654" fill="#EEEEEE"/><defs/><g id="instance2521" stroke-linejoin="round" stroke-linecap="round" fill-rule="evenodd" fill="none" transform="translate(557.827 557.827)"><path d=" M 0,0"/><path d=" M 236.204,-39.73 Q 239.522,-20.003 239.522,0 Q 239.522,20.003 236.204,39.73 L 219.881,36.984 Q 222.969,18.621 222.969,0 Q 222.969,-18.621 219.881,-36.984 L 236.204,-39.73" fill="#EEEEEE" stroke="#444444" stroke-width="2" stroke-linejoin="round" stroke-linecap="butt"/><path d=" M 195.114,138.928 Q 183.512,155.223 169.367,169.367 Q 155.223,183.512 138.928,195.114 L 129.327,181.631 Q 144.496,170.83 157.663,157.663 Q 170.83,144.496 181.631,129.327 L 195.114,138.928" fill="#EEEEEE" stroke="#444444" stroke-width="2" stroke-linejoin="round" stroke-linecap="butt"/><path d=" M 39.73,236.204 Q 20.003,239.522 0,239.522 Q -20.003,239.522 -39.73,236.204 L -36.984,219.881 Q -18.621,222.969 0,222.969 Q 18.621,222.969 36.984,219.881 L 39.73,236.204" fill="#EEEEEE" stroke="#444444" stroke-width="2" stroke-linejoin="round" stroke-linecap="butt"/><path d=" M -138.928,195.114 Q -155.223,183.512 -169.367,169.367 Q -183.512,155.223 -195.114,138.928 L -181.631,129.327 Q -170.83,144.496 -157.663,157.663 Q -144.496,170.83 -129.327,181.631 L -138.928,195.114" fill="#EEEEEE" stroke="#444444" stroke-width="2" stroke-linejoin="round" stroke-linecap="butt"/><path d=" M -236.204,39.73 Q -239.522,20.003 -239.522,0 Q -239.522,-20.003 -236.204,-39.73 L -219.881,-36.984 Q -222.969,-18.621 -222.969,0 Q -222.969,18.621 -219.881,36.984 L -236.204,39.73" fill="#EEEEEE" stroke="#444444" stroke-width="2" stroke-linejoin="round" stroke-linecap="butt"/><path d=" M -195.114,-138.928 Q -183.512,-155.223 -169.367,-169.367 Q -155.223,-183.512 -138.928,-195.114 L -129.327,-181.631 Q -144.496,-170.83 -157.663,-157.663 Q -170.83,-144.496 -181.631,-129.327 L -195.114,-138.928" fill="#EEEEEE" stroke="#444444" stroke-width="2" stroke-linejoin="round" stroke-linecap="butt"/><path d=" M -39.73,-236.204 Q -20.003,-239.522 0,-239.522 Q 20.003,-239.522 39.73,-236.204 L 36.984,-219.881 Q 18.621,-222.969 0,-222.969 Q -18.621,-222.969 -36.984,-219.881 L -39.73,-236.204" fill="#EEEEEE" stroke="#444444" stroke-width="2" stroke-linejoin="round" stroke-linecap="butt"/><path d=" M 138.928,-195.114 Q 155.223,-183.512 169.367,-169.367 Q 183.512,-155.223 195.114,-138.928 L 181.631,-129.327 Q 170.83,-144.496 157.663,-157.663 Q 144.496,-170.83 129.327,-181.631 L 138.928,-195.114" fill="#EEEEEE" stroke="#444444" stroke-width="2" stroke-linejoin="round" stroke-linecap="butt"/><path d=" M 128.751,0 Q 128.751,53.33 91.04,91.04 Q 53.33,128.751 0,128.751 L 0,128.751 Q -53.33,128.751 -91.04,91.04 Q -128.751,53.33 -128.751,0 L -128.751,0 Q -128.751,-53.33 -91.04,-91.04 Q -53.33,-128.751 0,-128.751 L 0,-128.751 Q 53.33,-128.751 91.04,-91.04 Q 128.751,-53.33 128.751,0 L 128.751,0 M 126.751,0 Q 126.751,52.502 89.626,89.626 Q 52.502,126.751 0,126.751 L 0,126.751 Q -52.502,126.751 -89.626,89.626 Q -126.751,52.502 -126.751,0 L -126.751,0 Q -126.751,-52.502 -89.626,-89.626 Q -52.502,-126.751 0,-126.751 L 0,-126.751 Q 52.502,-126.751 89.626,-89.626 Q 126.751,-52.502 126.751,0 L 126.751,0" fill="#444444"/><path d=" M 80.541,12.667 L 97.508,-2.986 L 100.465,18.363 L 103.352,27.219 L 107.155,30.7 L 112.201,31.178 L 118.492,28.652 L 123.887,28.29 L 128.384,30.092 L 131.986,34.059 L 134.691,40.19 L 137.884,45.14 L 141.567,48.91 L 145.74,51.499 L 150.401,52.907 L 154.903,54.699 L 159.246,56.876 L 163.429,59.436 L 167.454,62.381 L 171.48,65.324 L 175.506,68.263 L 180.541,71.934 L 189.606,78.537 L 178.769,76.213 L 172.75,74.919 L 167.935,73.88 L 163.122,72.839 L 158.31,71.796 L 153.339,71.136 L 148.208,70.861 L 142.918,70.971 L 137.47,71.464 L 132.51,70.777 L 128.039,68.908 L 124.058,65.86 L 120.565,61.63 L 116.176,59.565 L 110.891,59.664 L 104.709,61.927 L 97.631,66.355 L 91.796,67.779 L 87.206,66.199 L 83.86,61.616 L 81.758,54.029 L 78.269,49.793 L 73.391,48.907 L 65.213,52.825 L 47.994,65.908 L 71.06,66.837 L 58.055,84.024 L 53.834,92.328 L 54.061,97.478 L 57.292,101.384 L 63.527,104.046 L 67.597,107.605 L 69.503,112.06 L 69.245,117.411 L 66.822,123.659 L 65.58,129.418 L 65.519,134.688 L 66.638,139.468 L 68.939,143.76 L 70.855,148.211 L 72.387,152.821 L 73.534,157.59 L 74.298,162.518 L 75.064,167.445 L 75.832,172.371 L 76.797,178.527 L 78.537,189.606 L 72.518,180.299 L 69.177,175.128 L 66.507,170.989 L 63.84,166.85 L 61.175,162.709 L 58.126,158.728 L 54.692,154.905 L 50.875,151.242 L 46.673,147.738 L 43.652,143.745 L 41.812,139.263 L 41.152,134.292 L 41.674,128.832 L 40.031,124.268 L 36.223,120.6 L 30.251,117.83 L 22.115,115.955 L 16.983,112.837 L 14.854,108.474 L 15.729,102.867 L 19.607,96.016 L 20.135,90.553 L 17.313,86.478 L 8.76,83.465 L -12.667,80.541 L 2.986,97.508 L -18.363,100.465 L -27.219,103.352 L -30.7,107.155 L -31.178,112.201 L -28.652,118.492 L -28.29,123.887 L -30.092,128.384 L -34.059,131.986 L -40.19,134.691 L -45.14,137.884 L -48.91,141.567 L -51.499,145.74 L -52.907,150.401 L -54.699,154.903 L -56.876,159.246 L -59.436,163.429 L -62.381,167.454 L -65.324,171.48 L -68.263,175.506 L -71.934,180.541 L -78.537,189.606 L -76.213,178.769 L -74.919,172.75 L -73.88,167.935 L -72.839,163.122 L -71.796,158.31 L -71.136,153.339 L -70.861,148.208 L -70.971,142.918 L -71.464,137.47 L -70.777,132.51 L -68.908,128.039 L -65.86,124.058 L -61.63,120.565 L -59.565,116.176 L -59.664,110.891 L -61.927,104.709 L -66.355,97.631 L -67.779,91.796 L -66.199,87.206 L -61.616,83.86 L -54.029,81.758 L -49.793,78.269 L -48.907,73.391 L -52.825,65.213 L -65.908,47.994 L -66.837,71.06 L -84.024,58.055 L -92.328,53.834 L -97.478,54.061 L -101.384,57.292 L -104.046,63.527 L -107.605,67.597 L -112.06,69.503 L -117.411,69.245 L -123.659,66.822 L -129.418,65.58 L -134.688,65.519 L -139.468,66.638 L -143.76,68.939 L -148.211,70.855 L -152.821,72.387 L -157.59,73.534 L -162.518,74.298 L -167.445,75.064 L -172.371,75.832 L -178.527,76.797 L -189.606,78.537 L -180.299,72.518 L -175.128,69.177 L -170.989,66.507 L -166.85,63.84 L -162.709,61.175 L -158.728,58.126 L -154.905,54.692 L -151.242,50.875 L -147.738,46.673 L -143.745,43.652 L -139.263,41.812 L -134.292,41.152 L -128.832,41.674 L -124.268,40.031 L -120.6,36.223 L -117.83,30.251 L -115.955,22.115 L -112.837,16.983 L -108.474,14.854 L -102.867,15.729 L -96.016,19.607 L -90.553,20.135 L -86.478,17.313 L -83.465,8.76 L -80.541,-12.667 L -97.508,2.986 L -100.465,-18.363 L -103.352,-27.219 L -107.155,-30.7 L -112.201,-31.178 L -118.492,-28.652 L -123.887,-28.29 L -128.384,-30.092 L -131.986,-34.059 L -134.691,-40.19 L -137.884,-45.14 L -141.567,-48.91 L -145.74,-51.499 L -150.401,-52.907 L -154.903,-54.699 L -159.246,-56.876 L -163.429,-59.436 L -167.454,-62.381 L -171.48,-65.324 L -175.506,-68.263 L -180.541,-71.934 L -189.606,-78.537 L -178.769,-76.213 L -172.75,-74.919 L -167.935,-73.88 L -163.122,-72.839 L -158.31,-71.796 L -153.339,-71.136 L -148.208,-70.861 L -142.918,-70.971 L -137.47,-71.464 L -132.51,-70.777 L -128.039,-68.908 L -124.058,-65.86 L -120.565,-61.63 L -116.176,-59.565 L -110.891,-59.664 L -104.709,-61.927 L -97.631,-66.355 L -91.796,-67.779 L -87.206,-66.199 L -83.86,-61.616 L -81.758,-54.029 L -78.269,-49.793 L -73.391,-48.907 L -65.213,-52.825 L -47.994,-65.908 L -71.06,-66.837 L -58.055,-84.024 L -53.834,-92.328 L -54.061,-97.478 L -57.292,-101.384 L -63.527,-104.046 L -67.597,-107.605 L -69.503,-112.06 L -69.245,-117.411 L -66.822,-123.659 L -65.58,-129.418 L -65.519,-134.688 L -66.638,-139.468 L -68.939,-143.76 L -70.855,-148.211 L -72.387,-152.821 L -73.534,-157.59 L -74.298,-162.518 L -75.064,-167.445 L -75.832,-172.371 L -76.797,-178.527 L -78.537,-189.606 L -72.518,-180.299 L -69.177,-175.128 L -66.507,-170.989 L -63.84,-166.85 L -61.175,-162.709 L -58.126,-158.728 L -54.692,-154.905 L -50.875,-151.242 L -46.673,-147.738 L -43.652,-143.745 L -41.812,-139.263 L -41.152,-134.292 L -41.674,-128.832 L -40.031,-124.268 L -36.223,-120.6 L -30.251,-117.83 L -22.115,-115.955 L -16.983,-112.837 L -14.854,-108.474 L -15.729,-102.867 L -19.607,-96.016 L -20.135,-90.553 L -17.313,-86.478 L -8.76,-83.465 L 12.667,-80.541 L -2.986,-97.508 L 18.363,-100.465 L 27.219,-103.352 L 30.7,-107.155 L 31.178,-112.201 L 28.652,-118.492 L 28.29,-123.887 L 30.092,-128.384 L 34.059,-131.986 L 40.19,-134.691 L 45.14,-137.884 L 48.91,-141.567 L 51.499,-145.74 L 52.907,-150.401 L 54.699,-154.903 L 56.876,-159.246 L 59.436,-163.429 L 62.381,-167.454 L 65.324,-171.48 L 68.263,-175.506 L 71.934,-180.541 L 78.537,-189.606 L 76.213,-178.769 L 74.919,-172.75 L 73.88,-167.935 L 72.839,-163.122 L 71.796,-158.31 L 71.136,-153.339 L 70.861,-148.208 L 70.971,-142.918 L 71.464,-137.47 L 70.777,-132.51 L 68.908,-128.039 L 65.86,-124.058 L 61.63,-120.565 L 59.565,-116.176 L 59.664,-110.891 L 61.927,-104.709 L 66.355,-97.631 L 67.779,-91.796 L 66.199,-87.206 L 61.616,-83.86 L 54.029,-81.758 L 49.793,-78.269 L 48.907,-73.391 L 52.825,-65.213 L 65.908,-47.994 L 66.837,-71.06 L 84.024,-58.055 L 92.328,-53.834 L 97.478,-54.061 L 101.384,-57.292 L 104.046,-63.527 L 107.605,-67.597 L 112.06,-69.503 L 117.411,-69.245 L 123.659,-66.822 L 129.418,-65.58 L 134.688,-65.519 L 139.468,-66.638 L 143.76,-68.939 L 148.211,-70.855 L 152.821,-72.387 L 157.59,-73.534 L 162.518,-74.298 L 167.445,-75.064 L 172.371,-75.832 L 178.527,-76.797 L 189.606,-78.537 L 180.299,-72.518 L 175.128,-69.177 L 170.989,-66.507 L 166.85,-63.84 L 162.709,-61.175 L 158.728,-58.126 L 154.905,-54.692 L 151.242,-50.875 L 147.738,-46.673 L 143.745,-43.652 L 139.263,-41.812 L 134.292,-41.152 L 128.832,-41.674 L 124.268,-40.031 L 120.6,-36.223 L 117.83,-30.251 L 115.955,-22.115 L 112.837,-16.983 L 108.474,-14.854 L 102.867,-15.729 L 96.016,-19.607 L 90.553,-20.135 L 86.478,-17.313 L 83.465,-8.76 L 80.541,12.667" fill="#444444" stroke="#444444" stroke-width="2" stroke-linejoin="round" stroke-linecap="butt"/><path d=" M 110.39,-45.725 L 300,0 L 110.39,45.725 L 212.132,212.132 L 45.725,110.39 L 0,300 L -45.725,110.39 L -212.132,212.132 L -110.39,45.725 L -300,0 L -110.39,-45.725 L -212.132,-212.132 L -45.725,-110.39 L 0,-300 L 45.725,-110.39 L 212.132,-212.132 L 110.39,-45.725" fill="#EEEEEE"/><path d=" M 0,0 L 300,0 L 110.39,45.725 M 0,0 L 212.132,212.132 L 45.725,110.39 M 0,0 L 0,300 L -45.725,110.39 M 0,0 L -212.132,212.132 L -110.39,45.725 M 0,0 L -300,0 L -110.39,-45.725 M 0,0 L -212.132,-212.132 L -45.725,-110.39 M 0,0 L 0,-300 L 45.725,-110.39 M 0,0 L 212.132,-212.132 L 110.39,-45.725" fill="#444444"/><path d=" M 110.39,-45.725 L 300,0 L 110.39,45.725 L 212.132,212.132 L 45.725,110.39 L 0,300 L -45.725,110.39 L -212.132,212.132 L -110.39,45.725 L -300,0 L -110.39,-45.725 L -212.132,-212.132 L -45.725,-110.39 L 0,-300 L 45.725,-110.39 L 212.132,-212.132 L 110.39,-45.725" stroke="#444444" stroke-width="2" stroke-linejoin="round" stroke-linecap="butt"/><path d=" M 302.654,0 Q 302.654,2.93 300.582,5.002 Q 298.51,7.074 295.58,7.074 L 295.58,7.074 Q 292.65,7.074 290.578,5.002 Q 288.506,2.93 288.506,0 L 288.506,0 Q 288.506,-2.93 290.578,-5.002 Q 292.65,-7.074 295.58,-7.074 L 295.58,-7.074 Q 298.51,-7.074 300.582,-5.002 Q 302.654,-2.93 302.654,0 L 302.654,0" fill="#EEEEEE" stroke="#444444" stroke-width="2" stroke-linejoin="round" stroke-linecap="butt"/><path d=" M 296.975,57.665 Q 296.975,60.595 294.903,62.667 Q 292.831,64.739 289.901,64.739 L 289.901,64.739 Q 286.97,64.739 284.898,62.667 Q 282.826,60.595 282.826,57.665 L 282.826,57.665 Q 282.826,54.735 284.898,52.663 Q 286.97,50.591 289.901,50.591 L 289.901,50.591 Q 292.831,50.591 294.903,52.663 Q 296.975,54.735 296.975,57.665 L 296.975,57.665" fill="#EEEEEE" stroke="#444444" stroke-width="2" stroke-linejoin="round" stroke-linecap="butt"/><path d=" M 280.155,113.114 Q 280.155,116.044 278.083,118.116 Q 276.011,120.188 273.08,120.188 L 273.08,120.188 Q 270.15,120.188 268.078,118.116 Q 266.006,116.044 266.006,113.114 L 266.006,113.114 Q 266.006,110.183 268.078,108.111 Q 270.15,106.039 273.08,106.039 L 273.08,106.039 Q 276.011,106.039 278.083,108.111 Q 280.155,110.183 280.155,113.114 L 280.155,113.114" fill="#EEEEEE" stroke="#444444" stroke-width="2" stroke-linejoin="round" stroke-linecap="butt"/><path d=" M 252.84,164.215 Q 252.84,167.146 250.768,169.218 Q 248.696,171.29 245.766,171.29 L 245.766,171.29 Q 242.836,171.29 240.764,169.218 Q 238.692,167.146 238.692,164.215 L 238.692,164.215 Q 238.692,161.285 240.764,159.213 Q 242.836,157.141 245.766,157.141 L 245.766,157.141 Q 248.696,157.141 250.768,159.213 Q 252.84,161.285 252.84,164.215 L 252.84,164.215" fill="#EEEEEE" stroke="#444444" stroke-width="2" stroke-linejoin="round" stroke-linecap="butt"/><path d=" M 216.081,209.007 Q 216.081,211.937 214.009,214.009 Q 211.937,216.081 209.007,216.081 L 209.007,216.081 Q 206.076,216.081 204.004,214.009 Q 201.932,211.937 201.932,209.007 L 201.932,209.007 Q 201.932,206.076 204.004,204.004 Q 206.076,201.932 209.007,201.932 L 209.007,201.932 Q 211.937,201.932 214.009,204.004 Q 216.081,206.076 216.081,209.007 L 216.081,209.007" fill="#EEEEEE" stroke="#444444" stroke-width="2" stroke-linejoin="round" stroke-linecap="butt"/><path d=" M 171.29,245.766 Q 171.29,248.696 169.218,250.768 Q 167.146,252.84 164.215,252.84 L 164.215,252.84 Q 161.285,252.84 159.213,250.768 Q 157.141,248.696 157.141,245.766 L 157.141,245.766 Q 157.141,242.836 159.213,240.764 Q 161.285,238.692 164.215,238.692 L 164.215,238.692 Q 167.146,238.692 169.218,240.764 Q 171.29,242.836 171.29,245.766 L 171.29,245.766" fill="#EEEEEE" stroke="#444444" stroke-width="2" stroke-linejoin="round" stroke-linecap="butt"/><path d=" M 120.188,273.08 Q 120.188,276.011 118.116,278.083 Q 116.044,280.155 113.114,280.155 L 113.114,280.155 Q 110.183,280.155 108.111,278.083 Q 106.039,276.011 106.039,273.08 L 106.039,273.08 Q 106.039,270.15 108.111,268.078 Q 110.183,266.006 113.114,266.006 L 113.114,266.006 Q 116.044,266.006 118.116,268.078 Q 120.188,270.15 120.188,273.08 L 120.188,273.08" fill="#EEEEEE" stroke="#444444" stroke-width="2" stroke-linejoin="round" stroke-linecap="butt"/><path d=" M 64.739,289.901 Q 64.739,292.831 62.667,294.903 Q 60.595,296.975 57.665,296.975 L 57.665,296.975 Q 54.735,296.975 52.663,294.903 Q 50.591,292.831 50.591,289.901 L 50.591,289.901 Q 50.591,286.97 52.663,284.898 Q 54.735,282.826 57.665,282.826 L 57.665,282.826 Q 60.595,282.826 62.667,284.898 Q 64.739,286.97 64.739,289.901 L 64.739,289.901" fill="#EEEEEE" stroke="#444444" stroke-width="2" stroke-linejoin="round" stroke-linecap="butt"/><path d=" M 7.074,295.58 Q 7.074,298.51 5.002,300.582 Q 2.93,302.654 0,302.654 L 0,302.654 Q -2.93,302.654 -5.002,300.582 Q -7.074,298.51 -7.074,295.58 L -7.074,295.58 Q -7.074,292.65 -5.002,290.578 Q -2.93,288.506 0,288.506 L 0,288.506 Q 2.93,288.506 5.002,290.578 Q 7.074,292.65 7.074,295.58 L 7.074,295.58" fill="#EEEEEE" stroke="#444444" stroke-width="2" stroke-linejoin="round" stroke-linecap="butt"/><path d=" M -50.591,289.901 Q -50.591,292.831 -52.663,294.903 Q -54.735,296.975 -57.665,296.975 L -57.665,296.975 Q -60.595,296.975 -62.667,294.903 Q -64.739,292.831 -64.739,289.901 L -64.739,289.901 Q -64.739,286.97 -62.667,284.898 Q -60.595,282.826 -57.665,282.826 L -57.665,282.826 Q -54.735,282.826 -52.663,284.898 Q -50.591,286.97 -50.591,289.901 L -50.591,289.901" fill="#EEEEEE" stroke="#444444" stroke-width="2" stroke-linejoin="round" stroke-linecap="butt"/><path d=" M -106.039,273.08 Q -106.039,276.011 -108.111,278.083 Q -110.183,280.155 -113.114,280.155 L -113.114,280.155 Q -116.044,280.155 -118.116,278.083 Q -120.188,276.011 -120.188,273.08 L -120.188,273.08 Q -120.188,270.15 -118.116,268.078 Q -116.044,266.006 -113.114,266.006 L -113.114,266.006 Q -110.183,266.006 -108.111,268.078 Q -106.039,270.15 -106.039,273.08 L -106.039,273.08" fill="#EEEEEE" stroke="#444444" stroke-width="2" stroke-linejoin="round" stroke-linecap="butt"/><path d=" M -157.141,245.766 Q -157.141,248.696 -159.213,250.768 Q -161.285,252.84 -164.215,252.84 L -164.215,252.84 Q -167.146,252.84 -169.218,250.768 Q -171.29,248.696 -171.29,245.766 L -171.29,245.766 Q -171.29,242.836 -169.218,240.764 Q -167.146,238.692 -164.215,238.692 L -164.215,238.692 Q -161.285,238.692 -159.213,240.764 Q -157.141,242.836 -157.141,245.766 L -157.141,245.766" fill="#EEEEEE" stroke="#444444" stroke-width="2" stroke-linejoin="round" stroke-linecap="butt"/><path d=" M -201.932,209.007 Q -201.932,211.937 -204.004,214.009 Q -206.076,216.081 -209.007,216.081 L -209.007,216.081 Q -211.937,216.081 -214.009,214.009 Q -216.081,211.937 -216.081,209.007 L -216.081,209.007 Q -216.081,206.076 -214.009,204.004 Q -211.937,201.932 -209.007,201.932 L -209.007,201.932 Q -206.076,201.932 -204.004,204.004 Q -201.932,206.076 -201.932,209.007 L -201.932,209.007" fill="#EEEEEE" stroke="#444444" stroke-width="2" stroke-linejoin="round" stroke-linecap="butt"/><path d=" M -238.692,164.215 Q -238.692,167.146 -240.764,169.218 Q -242.836,171.29 -245.766,171.29 L -245.766,171.29 Q -248.696,171.29 -250.768,169.218 Q -252.84,167.146 -252.84,164.215 L -252.84,164.215 Q -252.84,161.285 -250.768,159.213 Q -248.696,157.141 -245.766,157.141 L -245.766,157.141 Q -242.836,157.141 -240.764,159.213 Q -238.692,161.285 -238.692,164.215 L -238.692,164.215" fill="#EEEEEE" stroke="#444444" stroke-width="2" stroke-linejoin="round" stroke-linecap="butt"/><path d=" M -266.006,113.114 Q -266.006,116.044 -268.078,118.116 Q -270.15,120.188 -273.08,120.188 L -273.08,120.188 Q -276.011,120.188 -278.083,118.116 Q -280.155,116.044 -280.155,113.114 L -280.155,113.114 Q -280.155,110.183 -278.083,108.111 Q -276.011,106.039 -273.08,106.039 L -273.08,106.039 Q -270.15,106.039 -268.078,108.111 Q -266.006,110.183 -266.006,113.114 L -266.006,113.114" fill="#EEEEEE" stroke="#444444" stroke-width="2" stroke-linejoin="round" stroke-linecap="butt"/><path d=" M -282.826,57.665 Q -282.826,60.595 -284.898,62.667 Q -286.97,64.739 -289.901,64.739 L -289.901,64.739 Q -292.831,64.739 -294.903,62.667 Q -296.975,60.595 -296.975,57.665 L -296.975,57.665 Q -296.975,54.735 -294.903,52.663 Q -292.831,50.591 -289.901,50.591 L -289.901,50.591 Q -286.97,50.591 -284.898,52.663 Q -282.826,54.735 -282.826,57.665 L -282.826,57.665" fill="#EEEEEE" stroke="#444444" stroke-width="2" stroke-linejoin="round" stroke-linecap="butt"/><path d=" M -288.506,0 Q -288.506,2.93 -290.578,5.002 Q -292.65,7.074 -295.58,7.074 L -295.58,7.074 Q -298.51,7.074 -300.582,5.002 Q -302.654,2.93 -302.654,0 L -302.654,0 Q -302.654,-2.93 -300.582,-5.002 Q -298.51,-7.074 -295.58,-7.074 L -295.58,-7.074 Q -292.65,-7.074 -290.578,-5.002 Q -288.506,-2.93 -288.506,0 L -288.506,0" fill="#EEEEEE" stroke="#444444" stroke-width="2" stroke-linejoin="round" stroke-linecap="butt"/><path d=" M -282.826,-57.665 Q -282.826,-54.735 -284.898,-52.663 Q -286.97,-50.591 -289.901,-50.591 L -289.901,-50.591 Q -292.831,-50.591 -294.903,-52.663 Q -296.975,-54.735 -296.975,-57.665 L -296.975,-57.665 Q -296.975,-60.595 -294.903,-62.667 Q -292.831,-64.739 -289.901,-64.739 L -289.901,-64.739 Q -286.97,-64.739 -284.898,-62.667 Q -282.826,-60.595 -282.826,-57.665 L -282.826,-57.665" fill="#EEEEEE" stroke="#444444" stroke-width="2" stroke-linejoin="round" stroke-linecap="butt"/><path d=" M -266.006,-113.114 Q -266.006,-110.183 -268.078,-108.111 Q -270.15,-106.039 -273.08,-106.039 L -273.08,-106.039 Q -276.011,-106.039 -278.083,-108.111 Q -280.155,-110.183 -280.155,-113.114 L -280.155,-113.114 Q -280.155,-116.044 -278.083,-118.116 Q -276.011,-120.188 -273.08,-120.188 L -273.08,-120.188 Q -270.15,-120.188 -268.078,-118.116 Q -266.006,-116.044 -266.006,-113.114 L -266.006,-113.114" fill="#EEEEEE" stroke="#444444" stroke-width="2" stroke-linejoin="round" stroke-linecap="butt"/><path d=" M -238.692,-164.215 Q -238.692,-161.285 -240.764,-159.213 Q -242.836,-157.141 -245.766,-157.141 L -245.766,-157.141 Q -248.696,-157.141 -250.768,-159.213 Q -252.84,-161.285 -252.84,-164.215 L -252.84,-164.215 Q -252.84,-167.146 -250.768,-169.218 Q -248.696,-171.29 -245.766,-171.29 L -245.766,-171.29 Q -242.836,-171.29 -240.764,-169.218 Q -238.692,-167.146 -238.692,-164.215 L -238.692,-164.215" fill="#EEEEEE" stroke="#444444" stroke-width="2" stroke-linejoin="round" stroke-linecap="butt"/><path d=" M -201.932,-209.007 Q -201.932,-206.076 -204.004,-204.004 Q -206.076,-201.932 -209.007,-201.932 L -209.007,-201.932 Q -211.937,-201.932 -214.009,-204.004 Q -216.081,-206.076 -216.081,-209.007 L -216.081,-209.007 Q -216.081,-211.937 -214.009,-214.009 Q -211.937,-216.081 -209.007,-216.081 L -209.007,-216.081 Q -206.076,-216.081 -204.004,-214.009 Q -201.932,-211.937 -201.932,-209.007 L -201.932,-209.007" fill="#EEEEEE" stroke="#444444" stroke-width="2" stroke-linejoin="round" stroke-linecap="butt"/><path d=" M -157.141,-245.766 Q -157.141,-242.836 -159.213,-240.764 Q -161.285,-238.692 -164.215,-238.692 L -164.215,-238.692 Q -167.146,-238.692 -169.218,-240.764 Q -171.29,-242.836 -171.29,-245.766 L -171.29,-245.766 Q -171.29,-248.696 -169.218,-250.768 Q -167.146,-252.84 -164.215,-252.84 L -164.215,-252.84 Q -161.285,-252.84 -159.213,-250.768 Q -157.141,-248.696 -157.141,-245.766 L -157.141,-245.766" fill="#EEEEEE" stroke="#444444" stroke-width="2" stroke-linejoin="round" stroke-linecap="butt"/><path d=" M -106.039,-273.08 Q -106.039,-270.15 -108.111,-268.078 Q -110.183,-266.006 -113.114,-266.006 L -113.114,-266.006 Q -116.044,-266.006 -118.116,-268.078 Q -120.188,-270.15 -120.188,-273.08 L -120.188,-273.08 Q -120.188,-276.011 -118.116,-278.083 Q -116.044,-280.155 -113.114,-280.155 L -113.114,-280.155 Q -110.183,-280.155 -108.111,-278.083 Q -106.039,-276.011 -106.039,-273.08 L -106.039,-273.08" fill="#EEEEEE" stroke="#444444" stroke-width="2" stroke-linejoin="round" stroke-linecap="butt"/><path d=" M -50.591,-289.901 Q -50.591,-286.97 -52.663,-284.898 Q -54.735,-282.826 -57.665,-282.826 L -57.665,-282.826 Q -60.595,-282.826 -62.667,-284.898 Q -64.739,-286.97 -64.739,-289.901 L -64.739,-289.901 Q -64.739,-292.831 -62.667,-294.903 Q -60.595,-296.975 -57.665,-296.975 L -57.665,-296.975 Q -54.735,-296.975 -52.663,-294.903 Q -50.591,-292.831 -50.591,-289.901 L -50.591,-289.901" fill="#EEEEEE" stroke="#444444" stroke-width="2" stroke-linejoin="round" stroke-linecap="butt"/><path d=" M 7.074,-295.58 Q 7.074,-292.65 5.002,-290.578 Q 2.93,-288.506 0,-288.506 L 0,-288.506 Q -2.93,-288.506 -5.002,-290.578 Q -7.074,-292.65 -7.074,-295.58 L -7.074,-295.58 Q -7.074,-298.51 -5.002,-300.582 Q -2.93,-302.654 0,-302.654 L 0,-302.654 Q 2.93,-302.654 5.002,-300.582 Q 7.074,-298.51 7.074,-295.58 L 7.074,-295.58" fill="#EEEEEE" stroke="#444444" stroke-width="2" stroke-linejoin="round" stroke-linecap="butt"/><path d=" M 64.739,-289.901 Q 64.739,-286.97 62.667,-284.898 Q 60.595,-282.826 57.665,-282.826 L 57.665,-282.826 Q 54.735,-282.826 52.663,-284.898 Q 50.591,-286.97 50.591,-289.901 L 50.591,-289.901 Q 50.591,-292.831 52.663,-294.903 Q 54.735,-296.975 57.665,-296.975 L 57.665,-296.975 Q 60.595,-296.975 62.667,-294.903 Q 64.739,-292.831 64.739,-289.901 L 64.739,-289.901" fill="#EEEEEE" stroke="#444444" stroke-width="2" stroke-linejoin="round" stroke-linecap="butt"/><path d=" M 120.188,-273.08 Q 120.188,-270.15 118.116,-268.078 Q 116.044,-266.006 113.114,-266.006 L 113.114,-266.006 Q 110.183,-266.006 108.111,-268.078 Q 106.039,-270.15 106.039,-273.08 L 106.039,-273.08 Q 106.039,-276.011 108.111,-278.083 Q 110.183,-280.155 113.114,-280.155 L 113.114,-280.155 Q 116.044,-280.155 118.116,-278.083 Q 120.188,-276.011 120.188,-273.08 L 120.188,-273.08" fill="#EEEEEE" stroke="#444444" stroke-width="2" stroke-linejoin="round" stroke-linecap="butt"/><path d=" M 171.29,-245.766 Q 171.29,-242.836 169.218,-240.764 Q 167.146,-238.692 164.215,-238.692 L 164.215,-238.692 Q 161.285,-238.692 159.213,-240.764 Q 157.141,-242.836 157.141,-245.766 L 157.141,-245.766 Q 157.141,-248.696 159.213,-250.768 Q 161.285,-252.84 164.215,-252.84 L 164.215,-252.84 Q 167.146,-252.84 169.218,-250.768 Q 171.29,-248.696 171.29,-245.766 L 171.29,-245.766" fill="#EEEEEE" stroke="#444444" stroke-width="2" stroke-linejoin="round" stroke-linecap="butt"/><path d=" M 216.081,-209.007 Q 216.081,-206.076 214.009,-204.004 Q 211.937,-201.932 209.007,-201.932 L 209.007,-201.932 Q 206.076,-201.932 204.004,-204.004 Q 201.932,-206.076 201.932,-209.007 L 201.932,-209.007 Q 201.932,-211.937 204.004,-214.009 Q 206.076,-216.081 209.007,-216.081 L 209.007,-216.081 Q 211.937,-216.081 214.009,-214.009 Q 216.081,-211.937 216.081,-209.007 L 216.081,-209.007" fill="#EEEEEE" stroke="#444444" stroke-width="2" stroke-linejoin="round" stroke-linecap="butt"/><path d=" M 252.84,-164.215 Q 252.84,-161.285 250.768,-159.213 Q 248.696,-157.141 245.766,-157.141 L 245.766,-157.141 Q 242.836,-157.141 240.764,-159.213 Q 238.692,-161.285 238.692,-164.215 L 238.692,-164.215 Q 238.692,-167.146 240.764,-169.218 Q 242.836,-171.29 245.766,-171.29 L 245.766,-171.29 Q 248.696,-171.29 250.768,-169.218 Q 252.84,-167.146 252.84,-164.215 L 252.84,-164.215" fill="#EEEEEE" stroke="#444444" stroke-width="2" stroke-linejoin="round" stroke-linecap="butt"/><path d=" M 280.155,-113.114 Q 280.155,-110.183 278.083,-108.111 Q 276.011,-106.039 273.08,-106.039 L 273.08,-106.039 Q 270.15,-106.039 268.078,-108.111 Q 266.006,-110.183 266.006,-113.114 L 266.006,-113.114 Q 266.006,-116.044 268.078,-118.116 Q 270.15,-120.188 273.08,-120.188 L 273.08,-120.188 Q 276.011,-120.188 278.083,-118.116 Q 280.155,-116.044 280.155,-113.114 L 280.155,-113.114" fill="#EEEEEE" stroke="#444444" stroke-width="2" stroke-linejoin="round" stroke-linecap="butt"/><path d=" M 296.975,-57.665 Q 296.975,-54.735 294.903,-52.663 Q 292.831,-50.591 289.901,-50.591 L 289.901,-50.591 Q 286.97,-50.591 284.898,-52.663 Q 282.826,-54.735 282.826,-57.665 L 282.826,-57.665 Q 282.826,-60.595 284.898,-62.667 Q 286.97,-64.739 289.901,-64.739 L 289.901,-64.739 Q 292.831,-64.739 294.903,-62.667 Q 296.975,-60.595 296.975,-57.665 L 296.975,-57.665" fill="#EEEEEE" stroke="#444444" stroke-width="2" stroke-linejoin="round" stroke-linecap="butt"/><path d=" M -3.094,-300 Q -3.094,-360 -42.609,-360 Q -56.181,-360 -56.181,-340 Q -56.181,-316.667 -29.036,-310 Q -42.609,-330 -29.036,-330 Q -9.281,-330 -9.281,-300 Q -9.281,-278.326 -35.222,-256.651 Q -3.094,-278.326 -3.094,-300" fill="#444444" stroke="#444444" stroke-width="2" stroke-linejoin="round" stroke-linecap="butt"/><path d=" M 3.094,-300 Q 3.094,-360 42.609,-360 Q 56.181,-360 56.181,-340 Q 56.181,-316.667 29.036,-310 Q 42.609,-330 29.036,-330 Q 9.281,-330 9.281,-300 Q 9.281,-278.326 35.222,-256.651 Q 3.094,-278.326 3.094,-300" fill="#444444" stroke="#444444" stroke-width="2" stroke-linejoin="round" stroke-linecap="butt"/><path d=" M 0,-235.953 L -9.005,-262.955 Q -3.094,-281.477 -3.094,-300 C -3.0935666954964365,-335.4289212676699 -18.524835745904568,-335.4289212676699 -18.524835745904568,-370.85784253533984 Q -18.525,-388.871 0,-406.883 L 0,-235.953" fill="#444444" stroke="#444444" stroke-width="2" stroke-linejoin="round" stroke-linecap="butt"/><path d=" M 0,-406.883 Q 18.525,-388.871 18.525,-370.858 C 18.524835745904454,-335.4289212676699 3.0935666954963263,-335.4289212676699 3.0935666954963263,-300 Q 3.094,-281.477 9.005,-262.955 L 0,-235.953 L 0,-406.883" fill="#EEEEEE" stroke="#444444" stroke-width="2" stroke-linejoin="round" stroke-linecap="butt"/><path d=" M 13.921,-298.347 Q 13.921,-298.024 13.693,-297.796 Q 13.464,-297.567 13.141,-297.567 L -13.141,-297.567 Q -13.464,-297.567 -13.693,-297.796 Q -13.921,-298.024 -13.921,-298.347 L -13.921,-301.653 Q -13.921,-301.976 -13.693,-302.204 Q -13.464,-302.433 -13.141,-302.433 L 13.141,-302.433 Q 13.464,-302.433 13.693,-302.204 Q 13.921,-301.976 13.921,-301.653 L 13.921,-298.347" fill="#444444" stroke="#444444" stroke-width="2" stroke-linejoin="round" stroke-linecap="butt"/><path d=" M -2.476,-300 Q -2.476,-360 -42.246,-360 Q -55.858,-360 -55.858,-340 Q -55.858,-316.667 -28.633,-310 Q -42.246,-330 -28.633,-330 Q -7.427,-330 -7.427,-300 Q -7.427,-282.787 -35.086,-265.574 Q -2.476,-282.787 -2.476,-300" fill="#EEEEEE" stroke="#444444" stroke-width="2" stroke-linejoin="round" stroke-linecap="butt"/><path d=" M 2.476,-300 Q 2.476,-360 42.246,-360 Q 55.858,-360 55.858,-340 Q 55.858,-316.667 28.633,-310 Q 42.246,-330 28.633,-330 Q 7.427,-330 7.427,-300 Q 7.427,-282.787 35.086,-265.574 Q 2.476,-282.787 2.476,-300" fill="#EEEEEE" stroke="#444444" stroke-width="2" stroke-linejoin="round" stroke-linecap="butt"/><path d=" M 0,-242.238 L -9.649,-268.161 Q -2.476,-284.08 -2.476,-300 C -2.4757517083082554,-345.6624782003298 -24.75461385735303,-345.6624782003298 -24.75461385735303,-391.3249564006597 Q -24.755,-415.055 0,-438.784 L 0,-242.238" fill="#EEEEEE" stroke="#444444" stroke-width="2" stroke-linejoin="round" stroke-linecap="butt"/><path d=" M 0,-438.784 Q 24.755,-415.055 24.755,-391.325 C 24.754613857352915,-345.6624782003298 2.4757517083081453,-345.6624782003298 2.4757517083081453,-300 Q 2.476,-284.08 9.649,-268.161 L 0,-242.238 L 0,-438.784" fill="#444444" stroke="#444444" stroke-width="2" stroke-linejoin="round" stroke-linecap="butt"/><path d=" M 11.141,-296.739 Q 11.141,-296.336 10.856,-296.051 Q 10.571,-295.766 10.168,-295.766 L -10.168,-295.766 Q -10.571,-295.766 -10.856,-296.051 Q -11.141,-296.336 -11.141,-296.739 L -11.141,-303.261 Q -11.141,-303.664 -10.856,-303.949 Q -10.571,-304.234 -10.168,-304.234 L 10.168,-304.234 Q 10.571,-304.234 10.856,-303.949 Q 11.141,-303.664 11.141,-303.261 L 11.141,-296.739" fill="#EEEEEE" stroke="#444444" stroke-width="2" stroke-linejoin="round" stroke-linecap="butt"/><g id="instance2522" transform="translate(0 0)" stroke-linejoin="round" stroke-linecap="round" fill-rule="evenodd" fill="none"><path d=" M 0,0"/><text dominant-baseline="text-before-edge" style="font: 72px serif" fill="#444444" transform="translate(-25.998 -524.104)">N</text><text dominant-baseline="text-before-edge" style="font: 72px serif" fill="#444444" transform="translate(-20.021 300)">S</text><text dominant-baseline="text-before-edge" style="font: 72px serif" fill="#444444" transform="translate(-381.277 -42.66)">W</text><text dominant-baseline="text-before-edge" style="font: 72px serif" fill="#444444" transform="translate(313.32 -42.66)">E</text></g></g></svg>